<svg xmlns="http://www.w3.org/2000/svg" viewBox="0 0 101.36 39.8"><defs><style>.cls-1{fill:#fff;}</style></defs><g id="Warstwa_2" data-name="Warstwa 2"><g id="mobile"><path class="cls-1" d="M25,7l-7,12.29,11.92-.09c.43,0,.65.12.65.38s-.34.43-1,.57a29.32,29.32,0,0,1-3.44.42c-1.6.13-4.67.35-9.19.66-1.44,2.24-3,4.49-4.6,6.73A54.21,54.21,0,0,1,7.4,33.78c-1.6,1.65-2.86,2.47-3.81,2.47A3.7,3.7,0,0,1,1.33,35C.45,34.12,0,33.44,0,32.94c0-.25.1-.38.29-.38a4.2,4.2,0,0,1,1,.38,3.24,3.24,0,0,0,1.25.38c.67,0,1.74-.58,3.2-1.75A39.65,39.65,0,0,0,10.39,27a43.66,43.66,0,0,0,4.31-5.62c-.49,0-1.22,0-2.18.05s-1.69.05-2.17.05a6.65,6.65,0,0,1-3.47-.72c-.77-.48-1.16-1.43-1.16-2.87,0-.32.06-.48.19-.48a4.78,4.78,0,0,0,.49.34,7,7,0,0,0,1.51.6,19.13,19.13,0,0,0,3.11.56,41.86,41.86,0,0,0,5.05.25q5.06-7.71,8.22-13.09A3.64,3.64,0,0,0,23,4.64a20.11,20.11,0,0,0-2.19-1.09A6.43,6.43,0,0,1,19,2.46c.12-.29.61-.43,1.47-.43a18.24,18.24,0,0,1,3.34.32,10.29,10.29,0,0,1,2.57.78q1,.46,2.63,3.53t4.41,9q2.77,5.91,4.48,9.09a12.36,12.36,0,0,0,3,4.07q.81,0,.81.36t-1.2,1.08a4.53,4.53,0,0,1-2.2.68c-.44,0-.9-.39-1.36-1.16S35.6,27.39,34.47,25,32,19.94,30.54,17,27.18,10.77,25,7Z"/><path class="cls-1" d="M46.31,19.86c0,.76.48,1.27,1.42,1.49a38.92,38.92,0,0,0,4.77.71,19.71,19.71,0,0,1,5.06,1.05,2.42,2.42,0,0,1,1.7,2.37,4.41,4.41,0,0,1-1.52,3.38,9.67,9.67,0,0,1-3.89,2,18.06,18.06,0,0,1-4.84.67,24.34,24.34,0,0,1-3.28-.19,4.13,4.13,0,0,1-2-.79,2.17,2.17,0,0,1-.76-1.8c0-.67.09-1,.28-1s.58.23,1.57.67A24.23,24.23,0,0,0,48,29.63a13.54,13.54,0,0,0,3.81.52A6.48,6.48,0,0,0,55,29.49c.79-.45,1.19-1.42,1.19-2.93a1.78,1.78,0,0,0-1.57-1.81,27.9,27.9,0,0,0-4.83-.58,20.58,20.58,0,0,1-4.93-.75,2.16,2.16,0,0,1-1.66-2.2,3.81,3.81,0,0,1,2-3.36,13.6,13.6,0,0,1,4.63-1.76,25.06,25.06,0,0,1,4.59-.5q4.64,0,4.63,2.21a2.22,2.22,0,0,1-.15.8q-.16.39-.42.39a7.35,7.35,0,0,1-1.08-.58,10.55,10.55,0,0,0-2.44-1A13,13,0,0,0,51.32,17a8.37,8.37,0,0,0-3.56.68A2.27,2.27,0,0,0,46.31,19.86Z"/><path class="cls-1" d="M65,26a34.25,34.25,0,0,0,5.58-3.5,33.57,33.57,0,0,0,3.68-3.26c.86-.92,1.75-1.92,2.68-3s1.51-1.63,1.72-1.63.52.31.69.93A6,6,0,0,1,79.59,17c0,.68-.82,1.65-2.45,2.92a50.32,50.32,0,0,1-5.4,3.65L85.58,35A13.64,13.64,0,0,0,88,36.62a5.24,5.24,0,0,0,2.31.49,3.75,3.75,0,0,1-.45,1,5.24,5.24,0,0,1-1,1.18,1.7,1.7,0,0,1-1.16.52,4.92,4.92,0,0,1-2-1c-1-.68-8.3-8.47-16.88-13.5L65,26.94V31.1c0,.31-.09.47-.29.47a3.07,3.07,0,0,1-1.34-.33,1,1,0,0,1-.68-.9V9.78c0-1.61-.05-3-.13-4.29s-.19-2.39-.31-3.42S62.05.47,62.05.38c0-.25.1-.38.28-.38a5.36,5.36,0,0,1,2.22.62c.86.42,1.28.83,1.28,1.23q0,1.63-.4,9.4T65,26Z"/><path class="cls-1" d="M93.43,16.59a12.41,12.41,0,0,1,5.5,1.18,4.38,4.38,0,0,1,2.43,4.35,7.94,7.94,0,0,1-1.23,3.82,10.3,10.3,0,0,1-4,3.75,14.39,14.39,0,0,1-7.19,1.6q-7.56,0-7.56-5.63A7.08,7.08,0,0,1,83,21.1a11.51,11.51,0,0,1,4.49-3.3A14.88,14.88,0,0,1,93.43,16.59Zm5,7.23a5.19,5.19,0,0,0-1.1-3.45,5.93,5.93,0,0,0-2.7-1.83A10.49,10.49,0,0,0,91.3,18a8,8,0,0,0-3.37.75,6.71,6.71,0,0,0-2.62,2.09,5,5,0,0,0-1,3.07,4.8,4.8,0,0,0,1.11,3.16,7.1,7.1,0,0,0,2.79,2.05,8.86,8.86,0,0,0,3.38.7A7.75,7.75,0,0,0,95,29.05a6.12,6.12,0,0,0,2.47-2.16A5.45,5.45,0,0,0,98.39,23.82Z"/></g></g></svg>